<svg width="32" height="32" viewBox="0 0 32 32" fill="none" xmlns="http://www.w3.org/2000/svg">
<path d="M11.1737 11.8042C12.1017 13.7371 13.3667 15.5486 14.9689 17.1507C16.571 18.7528 18.3825 20.0178 20.3153 20.9458C20.4816 21.0257 20.5647 21.0656 20.6699 21.0962C21.0437 21.2052 21.5027 21.1269 21.8193 20.9002C21.9083 20.8365 21.9846 20.7602 22.137 20.6078C22.6031 20.1417 22.8362 19.9086 23.0706 19.7562C23.9544 19.1816 25.0938 19.1816 25.9777 19.7562C26.2121 19.9086 26.4451 20.1417 26.9113 20.6078L27.1711 20.8677C27.8797 21.5762 28.234 21.9305 28.4265 22.311C28.8092 23.0678 28.8092 23.9615 28.4265 24.7182C28.234 25.0987 27.8797 25.453 27.1711 26.1616L26.9609 26.3718C26.2548 27.078 25.9017 27.431 25.4216 27.7007C24.889 27.9999 24.0616 28.2151 23.4507 28.2133C22.9001 28.2116 22.5238 28.1048 21.7712 27.8912C17.7267 26.7433 13.9102 24.5773 10.7262 21.3933C7.54224 18.2093 5.37627 14.3929 4.22831 10.3483C4.0147 9.59574 3.9079 9.21944 3.90626 8.66885C3.90444 8.05788 4.11959 7.23056 4.41882 6.69789C4.68848 6.21785 5.04157 5.86476 5.74773 5.1586L5.95791 4.94842C6.6665 4.23983 7.02079 3.88554 7.4013 3.69308C8.15805 3.31032 9.05174 3.31032 9.80848 3.69308C10.189 3.88554 10.5433 4.23983 11.2519 4.94842L11.5117 5.20825C11.9778 5.67439 12.2109 5.90746 12.3633 6.14183C12.938 7.02568 12.938 8.16512 12.3633 9.04898C12.2109 9.28335 11.9778 9.51642 11.5117 9.98256C11.3593 10.135 11.2831 10.2112 11.2193 10.3003C10.9926 10.6168 10.9143 11.0759 11.0233 11.4497C11.054 11.5548 11.0939 11.638 11.1737 11.8042Z" stroke="black" stroke-width="2" stroke-linecap="round" stroke-linejoin="round"/>
</svg>
